<?xml version="1.0" encoding="UTF-8"?>
<svg id="Layer_2" data-name="Layer 2" xmlns="http://www.w3.org/2000/svg" viewBox="0 0 1239.88 299.94">
  <g id="Layer_1-2" data-name="Layer 1">
    <g>
      <path d="M224.49,214.93c-.08,4.03-.57,8.08-1.45,12.08-.35,1.6-.76,3.19-1.23,4.77-5.82,19.56-20.65,37.79-40.86,49.14-2.07,1.16-4.18,2.27-6.33,3.33-12.48,6.12-26.35,10.51-40.71,13.06-9.78,1.74-19.8,2.62-29.75,2.62s-19.58-.86-29.01-2.62c-4.77-.87-9.45-1.99-14-3.34-8.63-2.56-16.48-5.8-23.48-9.72-13.74-7.69-24.15-17.9-30.63-30.21-3.59-6.8-5.95-14.28-7.05-22.26H21.41c.87,4.45,2.33,8.61,4.33,12.41,6.96,13.21,21.67,23.69,41.41,29.52,32.74,9.67,74.31,5.16,103.46-11.21,13.1-7.36,23.37-18.63,28.72-30.72,2.52-5.68,3.94-11.55,4.05-17.26,.26-13.23-6.66-24.56-19.99-32.76-16.55-10.17-35.99-14.61-56.58-19.3-4.46-1.02-9.09-2.08-13.63-3.19-36.95-9.03-88.16-24.73-106.33-56.66C2.43,94.83,.17,86.59,.1,77.97c-.06-5.62,.83-11.41,2.63-17.33,2.92-9.54,7.52-17.58,13.12-24.35C35.97,11.99,69.12,4.03,84.97,1.53c29.98-4.71,74.05,.94,104.93,24.21,4.33,3.26,8.26,6.78,11.78,10.54,11.11,11.84,18.1,26,20.52,41.68h-21.47c-2.94-13.9-10.85-25.78-23.54-35.36-3.08-2.32-6.33-4.42-9.71-6.33-25.04-14.11-57.42-17.31-79.22-13.88-9.24,1.45-25.76,5.12-40.15,13.88-11.06,6.74-20.86,16.48-25.17,30.53-1.19,3.9-1.76,7.6-1.69,11.15,.08,5,1.41,9.7,3.96,14.2,15.76,27.72,73.88,41.92,92.99,46.59,4.37,1.08,8.92,2.11,13.31,3.11,21.35,4.87,43.43,9.92,62.94,21.91,15.24,9.36,25.07,22.3,28.59,37.26,1.06,4.46,1.54,9.11,1.45,13.89Z"/>
      <g>
        <rect x="259.32" y="77.9" width="21.24" height="219.35"/>
        <rect x="259.32" y="35.42" width="21.24" height="21.24" transform="translate(111.62 -177.39) rotate(45)"/>
      </g>
      <path d="M517.71,77.9v44.34c-6.06-8.07-15.82-18.95-30.35-28.3-14.25-9.17-26.93-12.91-31.36-14.11-9.34-2.54-19.03-3.82-29.01-3.82-15.35,0-29.67,2.75-42.82,8.21-13.2,5.42-25.28,13.59-36.12,24.46-21.67,21.93-32.68,48.63-32.68,79.28s11.01,57.23,32.68,78.89c21.71,21.67,48.24,32.68,78.94,32.68,9.89,0,19.5-1.25,28.76-3.71,5.77-1.54,18.03-5.3,31.6-14,14.81-9.5,24.53-20.61,30.35-28.52v43.95h21.24V77.9h-21.24Zm-90.72,19.35c24.98,0,46.56,8.99,64.19,26.7,17.58,17.71,26.53,39.25,26.53,64.02s-8.94,46.22-26.53,63.8c-17.58,17.58-39.21,26.53-64.19,26.53s-45.92-8.94-63.67-26.53c-17.71-17.58-26.7-39.08-26.7-63.8s9.03-46.31,26.74-64.02c17.71-17.71,39.12-26.7,63.63-26.7Z"/>
      <g>
        <rect x="661.19" y="43.14" width="21.24" height="287.58" transform="translate(1279.03 -155.92) rotate(135)"/>
        <rect x="661.19" y="43.14" width="21.24" height="287.58" transform="translate(328.95 -420.29) rotate(45)"/>
      </g>
      <path d="M1015.66,187.78c0-1.77-.04-3.53-.13-5.26-2.74-59.28-51.67-106.5-111.64-106.5-.28,0-.56,0-.84,.01-59.57,.43-108.06,47.49-110.79,106.49-.04,.78-.07,1.58-.1,2.38-.02,.95-.03,1.92-.03,2.88,0,.89,.01,1.79,.03,2.68,.01,.4,.02,.8,.04,1.21,.04,1.54,.13,3.06,.24,4.57,.18,2.53,.47,5.04,.83,7.52v.03c1.04,7.33,2.79,14.42,5.2,21.21,0,.01,.01,.02,.01,.03,1.01,2.84,2.11,5.61,3.32,8.33,.35,.76,.72,1.52,1.09,2.29,5.49,11.22,13.07,21.59,22.72,31.05,21.89,21.5,48.63,32.55,79.52,32.84,39.45-.43,73.99-21.29,93.52-52.5,2.3-3.66,4.38-7.46,6.24-11.39h-24.14c-15.81,25.36-43.82,42.31-75.81,42.65-.35,.01-.69,.01-1.04,.01-32.42,0-60.86-17.04-76.85-42.67-2.12-3.4-4.02-6.95-5.69-10.62,0-.01-.01-.02-.01-.03-3.02-6.67-5.23-13.78-6.55-21.21-.01-.01-.01-.02-.01-.03h199.71c.75-5.22,1.14-10.56,1.14-15.98Zm-202.16-5.26c1.21-22.71,10.02-42.53,26.22-58.95,17.2-17.46,38.23-26.31,62.47-26.31,.34,0,.69,0,1.03,.01,.23-.01,.45-.01,.69-.01,48.23,0,87.65,37.71,90.37,85.26h-180.78Z"/>
      <path d="M1212.3,103.93c-4.56-4.6-28.91-28.22-67.24-28.13-43.66,.1-69.82,30.89-73.36,35.2v-33.12h-21.24v219.37h21.24v-116.97c-.4-4.7-2.61-37.45,22.39-61.93,5.19-5.09,23.33-21.34,51.09-21.3,27.66,.04,45.71,16.23,51.05,21.49,23.97,23.61,22.68,54.58,22.4,59.46v119.25h21.24v-125.41c.05-6.33-.28-40.39-27.58-67.91Z"/>
    </g>
  </g>
</svg>