<?xml version="1.0" encoding="UTF-8"?>
<svg id="Layer_2" data-name="Layer 2" xmlns="http://www.w3.org/2000/svg" viewBox="0 0 546.37 158.43">
  <defs>
    <style>
      .cls-1 {
        fill: #fff;
      }
    </style>
  </defs>
  <g id="Layer_1-2" data-name="Layer 1">
    <g>
      <g>
        <path class="cls-1" d="M224.5,99.82c-.03,1.28-.18,2.56-.46,3.83-.11,.51-.24,1.01-.39,1.51-1.84,6.2-6.55,11.98-12.95,15.58-.66,.37-1.32,.72-2.01,1.05-3.96,1.94-8.35,3.33-12.9,4.14-3.1,.55-6.28,.83-9.43,.83s-6.21-.27-9.19-.83c-1.51-.28-3-.63-4.44-1.06-2.74-.81-5.22-1.84-7.44-3.08-4.36-2.44-7.65-5.67-9.71-9.58-1.14-2.16-1.89-4.53-2.24-7.06h6.79c.28,1.41,.74,2.73,1.37,3.93,2.21,4.19,6.87,7.51,13.13,9.36,10.38,3.06,23.56,1.63,32.79-3.55,4.15-2.33,7.41-5.9,9.11-9.74,.8-1.8,1.25-3.66,1.29-5.47,.08-4.19-2.11-7.78-6.34-10.38-5.25-3.22-11.41-4.63-17.94-6.12-1.41-.32-2.88-.66-4.32-1.01-11.71-2.86-27.95-7.84-33.71-17.96-1.4-2.47-2.12-5.08-2.14-7.81-.02-1.78,.26-3.62,.84-5.49,.93-3.02,2.38-5.57,4.16-7.72,6.38-7.7,16.89-10.22,21.91-11.02,9.5-1.49,23.47,.3,33.26,7.68,1.37,1.03,2.62,2.15,3.73,3.34,3.52,3.75,5.74,8.24,6.51,13.21h-6.8c-.93-4.41-3.44-8.17-7.46-11.21-.98-.73-2.01-1.4-3.08-2.01-7.94-4.47-18.2-5.49-25.11-4.4-2.93,.46-8.17,1.62-12.73,4.4-3.51,2.14-6.61,5.22-7.98,9.68-.38,1.23-.56,2.41-.54,3.54,.03,1.58,.45,3.07,1.26,4.5,5,8.79,23.42,13.29,29.48,14.77,1.39,.34,2.83,.67,4.22,.99,6.77,1.54,13.77,3.14,19.95,6.94,4.83,2.97,7.95,7.07,9.06,11.81,.33,1.41,.49,2.89,.46,4.4Z"/>
        <g>
          <rect class="cls-1" x="235.54" y="56.39" width="6.73" height="69.53"/>
          <rect class="cls-1" x="235.54" y="42.92" width="6.73" height="6.73" transform="translate(37.24 182.49) rotate(-45)"/>
        </g>
        <path class="cls-1" d="M317.45,56.38v14.06c-1.92-2.56-5.01-6.01-9.62-8.97-4.52-2.91-8.54-4.09-9.94-4.47-2.96-.8-6.03-1.21-9.19-1.21-4.87,0-9.4,.87-13.57,2.6-4.18,1.72-8.01,4.31-11.45,7.75-6.87,6.95-10.36,15.41-10.36,25.13s3.49,18.14,10.36,25.01c6.88,6.87,15.29,10.36,25.02,10.36,3.14,0,6.18-.39,9.12-1.18,1.83-.49,5.72-1.68,10.02-4.44,4.7-3.01,7.78-6.53,9.62-9.04v13.93h6.73V56.38h-6.73Zm-28.76,6.13c7.92,0,14.76,2.85,20.35,8.46,5.57,5.62,8.41,12.44,8.41,20.29s-2.83,14.65-8.41,20.23c-5.57,5.57-12.43,8.41-20.35,8.41s-14.56-2.83-20.18-8.41c-5.62-5.57-8.46-12.39-8.46-20.23s2.86-14.68,8.48-20.29c5.62-5.61,12.4-8.46,20.17-8.46Z"/>
        <g>
          <rect class="cls-1" x="362.93" y="45.37" width="6.73" height="91.16" transform="translate(42.97 285.65) rotate(-45)"/>
          <rect class="cls-1" x="320.71" y="87.58" width="91.16" height="6.73" transform="translate(42.97 285.65) rotate(-45)"/>
        </g>
        <path class="cls-1" d="M475.29,91.22c0-.56-.01-1.12-.04-1.67-.87-18.79-16.38-33.76-35.39-33.76-.09,0-.18,0-.27,0-18.88,.14-34.25,15.05-35.12,33.76-.01,.25-.02,.5-.03,.76,0,.3,0,.61,0,.91,0,.28,0,.57,0,.85,0,.13,0,.25,.01,.38,.01,.49,.04,.97,.08,1.45,.06,.8,.15,1.6,.26,2.38h0c.33,2.33,.89,4.58,1.65,6.73,0,0,0,0,0,.01,.32,.9,.67,1.78,1.05,2.64,.11,.24,.23,.48,.35,.72,1.74,3.56,4.14,6.84,7.2,9.84,6.94,6.82,15.41,10.32,25.21,10.41,12.5-.14,23.45-6.75,29.65-16.64,.73-1.16,1.39-2.37,1.98-3.61h-7.65c-5.01,8.04-13.89,13.41-24.03,13.52-.11,0-.22,0-.33,0-10.28,0-19.29-5.4-24.36-13.52-.67-1.08-1.28-2.2-1.8-3.37,0,0,0,0,0-.01-.96-2.11-1.66-4.37-2.08-6.72,0,0,0,0,0-.01h63.31c.24-1.65,.36-3.35,.36-5.06Zm-64.08-1.67c.38-7.2,3.17-13.48,8.31-18.69,5.45-5.53,12.12-8.34,19.8-8.34,.11,0,.22,0,.33,0,.07,0,.14,0,.22,0,15.29,0,27.78,11.95,28.65,27.03h-57.31Z"/>
        <path class="cls-1" d="M537.62,64.64c-1.45-1.46-9.17-8.95-21.31-8.92-13.84,.03-22.13,9.79-23.25,11.16v-10.5h-6.73V125.92h6.73v-37.08c-.13-1.49-.83-11.87,7.1-19.63,1.65-1.61,7.4-6.77,16.19-6.75,8.77,.01,14.49,5.14,16.18,6.81,7.6,7.48,7.19,17.3,7.1,18.85v37.8h6.73v-39.75c.02-2.01-.09-12.8-8.74-21.53Z"/>
      </g>
      <polygon class="cls-1" points="121.65 96.27 59.48 158.43 3.61 102.56 17.05 89.11 22 94.06 13.51 102.56 59.48 148.53 111.75 96.27 65.77 50.29 51.31 64.75 80.23 93.67 55.87 118.04 0 62.16 62.16 0 118.04 55.87 104.59 69.32 99.64 64.37 108.14 55.87 62.16 9.9 9.9 62.16 55.87 108.14 70.34 93.67 41.41 64.75 65.77 40.39 121.65 96.27"/>
    </g>
  </g>
</svg>